<svg xmlns="http://www.w3.org/2000/svg" width="312.6039" height="64.8" viewBox="0 0 312.6039 64.8"><defs><style>.cls-1{fill:#1d3b6e;}.cls-2{fill:#56bd85;}.cls-3{fill:#fff;}</style></defs><g id="HD_BG_COLOR" data-name="HD BG COLOR"><rect class="cls-1" width="125" height="64.8" rx="11"/></g><g id="Mag_Text" data-name="Mag Text"><path class="cls-2" d="M200.8209,69.1211H187.2046V33.584l-9.8378,23.0615h-9.4463L158.0831,33.584V69.1211H145.18V16.0469h15.8975l11.9409,26.626,11.9053-26.626h15.8975Z" transform="translate(-5.38 -9.04)"/><path class="cls-2" d="M263.4127,69.1211H249.2769L245.58,58.3926H225.939l-3.6972,10.7285h-13.793l19.6045-53.0742h15.7549ZM242.29,48.6611,235.76,29.6475l-6.5312,19.0136Z" transform="translate(-5.38 -9.04)"/><path class="cls-2" d="M317.9839,66.0918a71.5634,71.5634,0,0,1-9.4453,2.7617,51.4518,51.4518,0,0,1-11.7275,1.3731q-13.5455,0-21.208-7.3614Q267.939,55.5059,267.939,42.53q0-12.3676,7.7354-19.9429,7.7343-7.5732,21.5644-7.5742a51.0562,51.0562,0,0,1,9.98.9443A44.6732,44.6732,0,0,1,317.77,19.7183v12.44h-1.5322q-.9992-.7485-2.9229-2.1206a35.5271,35.5271,0,0,0-3.707-2.335,24.4,24.4,0,0,0-4.83-1.96,20.5125,20.5125,0,0,0-5.8633-.82,19.2936,19.2936,0,0,0-6.5947,1.0693,15.2732,15.2732,0,0,0-5.3106,3.2793,14.9553,14.9553,0,0,0-3.5468,5.4355,20.62,20.62,0,0,0-1.3008,7.61q0,8.8051,4.6689,13.4736,4.67,4.67,13.7949,4.67.7838,0,1.7286-.0362t1.7285-.1064V49.9092h-10.586V39.8931h24.4873Z" transform="translate(-5.38 -9.04)"/></g><g id="HD_Text" data-name="HD Text"><path class="cls-3" d="M60.4351,69.1211H46.7476V45.7383h-20.21V69.1211H12.85V16.0469H26.5372V35.4731h20.21V16.0469H60.4351Z" transform="translate(-5.38 -9.04)"/><path class="cls-3" d="M124.1319,42.6377a26.0627,26.0627,0,0,1-3.3862,13.2773,24.692,24.692,0,0,1-8.5547,9,26.2348,26.2348,0,0,1-8.5191,3.2793,56.66,56.66,0,0,1-10.9785.9268H73.98V16.0469H93.2281a50.2955,50.2955,0,0,1,11.1924,1.0874,26.0211,26.0211,0,0,1,7.9131,3.083,24.0984,24.0984,0,0,1,8.6435,9.0361A27.15,27.15,0,0,1,124.1319,42.6377ZM109.981,42.53a19.4757,19.4757,0,0,0-1.9072-8.9644,13.3181,13.3181,0,0,0-6.0415-5.8276,15.6768,15.6768,0,0,0-4.2954-1.4077,42.6763,42.6763,0,0,0-6.6118-.3745H87.6675V59.1768h3.4576a41.1292,41.1292,0,0,0,7.1645-.4463,15.5986,15.5986,0,0,0,4.4556-1.6211,13.1814,13.1814,0,0,0,5.4892-5.7217A20.1165,20.1165,0,0,0,109.981,42.53Z" transform="translate(-5.38 -9.04)"/></g></svg>